#!OML:ASF H:\Terrain\Patient Classification 1\Terrain2\Thursday\justin.ASF
:FULLY-SPECIFIED
:DEGREES
1685
root -11.0323 17.2598 -10.9761 1257.24 -159.118 -177.736
lowerback 5.72189 0.612802 -0.0953121
upperback 3.08504 0.80961 3.24095
thorax -0.0799586 0.371357 3.34478
lowerneck -13.7305 1.02928 -7.13896
upperneck 39.4975 3.88678 -0.784527
head 16.4175 0.338388 1.57693
rclavicle 5.32743e-014 4.77083e-015
rhumerus -33.4173 -23.1047 -71.6059
rradius 20.864
rwrist -4.41494
rhand -19.6027 11.9364
rfingers 7.12502
rthumb 6.72335 -17.9368
lclavicle 5.32743e-014 4.77083e-015
lhumerus -34.7492 14.9562 78.7142
lradius 29.1667
lwrist 6.55178
lhand -19.4583 26.0909
lfingers 7.12502
lthumb 6.86276 55.9596
rfemur -16.9444 -6.23537 17.4269
rtibia 53.2066
rfoot -22.4863 -8.90672
rtoes 1.53822
lfemur -7.39186 -0.28683 -22.11
ltibia 24.7475
lfoot -13.2698 -13.3646
ltoes -0.363699
1686
root -11.0537 17.26 -10.9627 1257.29 -159.836 -178.068
lowerback 5.76534 0.544364 0.155871
upperback 3.23934 0.726375 3.22529
thorax 0.0628596 0.330232 3.19219
lowerneck -13.6946 1.34232 -6.34573
upperneck 39.17 4.27884 -1.20833
head 16.2489 0.580636 1.31607
rclavicle 3.57812e-015 -2.38542e-014
rhumerus -32.9286 -23.313 -71.9737
rradius 20.7934
rwrist -4.00841
rhand -20.1869 12.12
rfingers 7.12502
rthumb 6.15936 -17.7704
lclavicle 3.57812e-015 -2.38542e-014
lhumerus -34.4934 14.8179 78.4196
lradius 28.7968
lwrist 7.32653
lhand -19.5791 25.9902
lfingers 7.12502
lthumb 6.7461 55.8628
rfemur -16.6788 -5.04143 17.6914
rtibia 52.3871
rfoot -22.7066 -8.04793
rtoes 0.428446
lfemur -7.31131 -0.488055 -21.7404
ltibia 24.8047
lfoot -13.2873 -13.7466
ltoes 0.659211
1687
root -11.0778 17.2768 -10.9468 1257.42 -160.679 -178.477
lowerback 5.77534 0.431986 0.44767
upperback 3.34803 0.587483 3.25563
thorax 0.179432 0.262559 3.06744
lowerneck -13.6657 1.67848 -5.65692
upperneck 38.8658 4.7512 -1.65878
head 16.1019 0.834829 1.07764
rclavicle 1.51076e-014 2.22639e-014
rhumerus -32.5956 -23.2915 -72.3629
rradius 20.9715
rwrist -3.63004
rhand -20.3701 11.783
rfingers 7.12502
rthumb 5.98252 -18.1126
lclavicle 1.51076e-014 2.22639e-014
lhumerus -34.3726 15.0037 78.0187
lradius 28.4139
lwrist 7.50169
lhand -19.547 25.7827
lfingers 7.12502
lthumb 6.77717 55.6542
rfemur -16.4531 -3.85327 18.0638
rtibia 51.5765
rfoot -23.18 -7.41546
rtoes -0.450853
lfemur -7.19657 -0.70303 -21.2856
ltibia 24.7307
lfoot -13.4716 -14.1836
ltoes -0.063376
1688
root -11.1005 17.2907 -10.9289 1257.43 -161.563 -178.246
lowerback 5.83977 0.33321 -0.0518645
upperback 3.26723 0.437304 3.27377
thorax 0.0645335 0.182817 3.37627
lowerneck -13.81 1.80847 -5.44583
upperneck 38.881 5.02355 -1.94341
head 16.1594 0.939933 0.966826
rclavicle 4.77083e-015 0
rhumerus -32.6223 -22.3148 -72.7004
rradius 21.4984
rwrist -4.18882
rhand -20.3402 11.2186
rfingers 7.12502
rthumb 6.01136 -18.6761
lclavicle 4.77083e-015 0
lhumerus -34.7092 15.466 77.6216
lradius 28.1293
lwrist 7.0749
lhand -19.2799 25.3373
lfingers 7.12502
lthumb 7.03494 55.2004
rfemur -16.3328 -2.70556 17.7321
rtibia 50.7412
rfoot -23.6837 -6.77906
rtoes -0.704072
lfemur -7.19098 -0.898299 -21.5124
ltibia 24.6226
lfoot -13.4927 -14.7973
ltoes 0.670782
1689
root -11.1259 17.2903 -10.9174 1257.33 -162.47 -177.663
lowerback 6.01421 0.268728 -1.12221
upperback 3.16085 0.304746 3.34226
thorax -0.138092 0.107315 4.06124
lowerneck -13.9994 1.48017 -5.91112
upperneck 39.3835 4.57308 -1.57903
head 16.4559 0.711394 1.13722
rclavicle 2.64384e-014 2.54444e-014
rhumerus -32.5291 -21.1162 -72.9821
rradius 21.9839
rwrist -5.04996
rhand -20.5738 11.2765
rfingers 7.12502
rthumb 5.7858 -18.6245
lclavicle 2.64384e-014 2.54444e-014
lhumerus -34.9839 15.8393 77.4745
lradius 27.7891
lwrist 6.69423
lhand -19.1894 25.2827
lfingers 7.12502
lthumb 7.12237 55.1428
rfemur -16.2266 -1.72836 17.0356
rtibia 49.8845
rfoot -23.9703 -6.36478
rtoes -2.26061
lfemur -7.2631 -1.04706 -22.0886
ltibia 24.5498
lfoot -13.3263 -15.5657
ltoes 2.49418
1690
root -11.1581 17.287 -10.9055 1257.5 -163.299 -177.935
lowerback 5.73564 0.168698 -0.757202
upperback 3.32047 0.183356 3.13909
thorax 0.191341 0.0470397 3.65019
lowerneck -13.8349 1.44117 -5.42857
upperneck 39.0258 4.3627 -1.65165
head 16.2403 0.706414 0.98065
rclavicle -1.94809e-014 -1.59028e-015
rhumerus -32.0803 -20.5125 -73.9968
rradius 22.3752
rwrist -5.77943
rhand -20.8669 11.3759
rfingers 7.12502
rthumb 5.50287 -18.5327
lclavicle -1.94809e-014 -1.59028e-015
lhumerus -34.6717 15.4735 76.9758
lradius 27.4855
lwrist 6.66531
lhand -19.2519 25.7774
lfingers 7.12502
lthumb 7.06195 55.6396
rfemur -16.0663 -0.626959 17.3412
rtibia 48.9799
rfoot -24.0206 -6.47153
rtoes -4.83614
lfemur -7.37611 -1.31695 -21.7097
ltibia 24.5595
lfoot -13.7273 -16.1353
ltoes 0.989421
1691
root -11.1847 17.2826 -10.8874 1257.64 -164.179 -178.268
lowerback 5.63478 0.0519291 -0.517165
upperback 3.31429 0.0389516 3.1551
thorax 0.250831 -0.0224837 3.53862
lowerneck -13.4833 1.55568 -5.43665
upperneck 38.5276 4.45299 -1.54414
head 15.886 0.787938 1.03683
rclavicle -1.98785e-016 -2.06736e-014
rhumerus -31.9611 -19.4782 -74.5567
rradius 22.788
rwrist -6.63435
rhand -21.0206 11.2811
rfingers 7.12502
rthumb 5.3545 -18.6313
lclavicle -1.98785e-016 -2.06736e-014
lhumerus -34.8093 15.3335 76.679
lradius 27.305
lwrist 6.61178
lhand -19.5754 25.774
lfingers 7.12502
lthumb 6.74971 55.6464
rfemur -15.7614 0.466294 17.6263
rtibia 48.0541
rfoot -24.0974 -6.18841
rtoes -4.02057
lfemur -7.50843 -1.59454 -21.3008
ltibia 24.75
lfoot -14.292 -16.6938
ltoes -0.729688
1692
root -11.2097 17.2767 -10.8682 1257.64 -165.016 -178.125
lowerback 5.62934 0.0374586 -0.77765
upperback 3.20296 0.0117079 3.1547
thorax 0.141294 -0.0365781 3.68707
lowerneck -13.2576 1.50694 -5.9607
upperneck 38.4662 4.34599 -1.07352
head 15.771 0.742946 1.31039
rclavicle -3.93594e-014 1.59028e-014
rhumerus -32.1401 -18.8649 -74.6218
rradius 23.1334
rwrist -7.09037
rhand -21.0536 11.6761
rfingers 7.12502
rthumb 5.32258 -18.2371
lclavicle -3.93594e-014 1.59028e-014
lhumerus -35.0955 15.2659 76.5218
lradius 27.0425
lwrist 6.23164
lhand -19.2339 25.8339
lfingers 7.12502
lthumb 7.07933 55.6955
rfemur -15.4132 1.40451 17.3303
rtibia 47.126
rfoot -24.2645 -5.29392
rtoes -0.762842
lfemur -7.67357 -1.74604 -21.4168
ltibia 25.1088
lfoot -14.5342 -17.2502
ltoes -0.991008
1693
root -11.2418 17.2767 -10.8531 1257.87 -165.643 -178.62
lowerback 5.59709 0.0962506 -0.43551
upperback 3.08004 0.110285 3.34299
thorax 0.0258486 0.0181629 3.6834
lowerneck -13.233 1.35342 -6.35173
upperneck 38.7696 4.20467 -0.934347
head 15.9147 0.637305 1.41952
rclavicle -1.31198e-014 1.59028e-015
rhumerus -32.3097 -18.4662 -74.6218
rradius 23.5252
rwrist -7.37462
rhand -21.1407 11.7861
rfingers 7.12502
rthumb 5.23852 -18.1292
lclavicle -1.31198e-014 1.59028e-015
lhumerus -35.2923 15.1118 76.4649
lradius 26.7466
lwrist 5.49057
lhand -18.5572 25.2056
lfingers 7.12502
lthumb 7.73259 55.0442
rfemur -15.2306 2.41755 17.8587
rtibia 46.2016
rfoot -24.1447 -5.00428
rtoes 0.216839
lfemur -7.90857 -1.75683 -20.7669
ltibia 25.4045
lfoot -14.7982 -17.85
ltoes -1.53508
1694
root -11.2722 17.2769 -10.837 1258.14 -166.273 -179.353
lowerback 5.50652 0.105015 0.228178
upperback 3.06622 0.152434 3.49224
thorax 0.0600683 0.0456463 3.46042
lowerneck -13.4222 1.2428 -6.55018
upperneck 38.9789 4.08188 -0.783598
head 16.065 0.569813 1.50603
rclavicle -2.08724e-014 -2.22639e-014
rhumerus -32.3335 -17.8123 -74.9861
rradius 24.1569
rwrist -7.92222
rhand -20.9909 11.5627
rfingers 7.12502
rthumb 5.38316 -18.3489
lclavicle -2.08724e-014 -2.22639e-014
lhumerus -35.2545 14.6256 76.4834
lradius 26.5644
lwrist 5.17964
lhand -18.8319 24.0334
lfingers 7.12502
lthumb 7.46738 53.8816
rfemur -15.1101 3.45818 18.6732
rtibia 45.2946
rfoot -23.8258 -4.90377
rtoes 0.579314
lfemur -8.13251 -1.77106 -19.8471
ltibia 25.6116
lfoot -14.9357 -18.5922
ltoes -1.41342
1695
root -11.3024 17.2766 -10.8115 1258.14 -166.993 -179.404
lowerback 5.4118 0.130487 0.286091
upperback 3.11993 0.185685 3.37159
thorax 0.166343 0.063298 3.30071
lowerneck -13.4269 1.10289 -6.64616
upperneck 38.905 3.78428 -0.468899
head 16.0227 0.482544 1.61021
rclavicle -2.5842e-015 9.54166e-015
rhumerus -32.2046 -17.5088 -75.4298
rradius 24.733
rwrist -7.96271
rhand -21.0636 10.332
rfingers 7.12502
rthumb 5.31296 -19.5814
lclavicle -2.5842e-015 9.54166e-015
lhumerus -35.0646 14.0282 76.3509
lradius 26.2983
lwrist 4.8103
lhand -18.6716 24.6751
lfingers 7.12502
lthumb 7.62212 54.5178
rfemur -14.7635 4.4193 18.7095
rtibia 44.3554
rfoot -23.5454 -4.53123
rtoes 1.51979
lfemur -8.20664 -1.99256 -19.7133
ltibia 25.8371
lfoot -14.9596 -19.1705
ltoes -0.861331
